<svg height="25" viewBox="0 0 94 25" width="94" xmlns="http://www.w3.org/2000/svg"><g fill="#232428" fill-rule="evenodd" transform="translate(0 -1)"><path class="st0" d="M429.8,31.1l-9.5-7.4c-1-0.7-2.2-1.5-2.2-2.6c0-1.4,3.7-1.2,5-1.2h11.5l-3.2-8.2h-14.7c-11.4,0-14,5.2-14,8.5
		c0,3.6,3.2,6.2,6.4,8.8l9.2,7.4c1,0.7,2.2,1.5,2.2,2.6c0,1.4-3.7,1.2-5,1.2h-11l-4.9,8.2h22.6c11.4,0,14-5.2,14-8.5
		C436.2,36.2,433,33.6,429.8,31.1"></path> </g> <g id="B2"> <path class="st0" d="M389.5,28.4c3.7-2.2,6.9-4.7,6.9-8.2c0-4-3.1-8.5-15.2-8.5h-24.6l-3.2,8.2h21.3c4.5,0,6.4,0,6.4,1.7
		c0,1.9-4.6,4.1-6.6,5.1l-4.3,2.3c4,1.3,13.1,5.2,13.1,8.8c0,2.2-3.5,2.2-5.9,2.2h-7.8V22.4H356v25.9h25.1c14.3,0,17.6-4.8,17.6-9
		C398.7,34.7,394.7,31,389.5,28.4"></path> </g> <g id="I"> <rect class="st0" height="36.6" width="13.6" x="333" y="11.7"></rect> </g> <g id="R2"> <path class="st0" d="M311.4,29c7.6-3.4,14.2-8,14.2-14.8c0-5.3-4.4-12.1-20.1-12.1h-32l-4,10.5h28.2c3.1,0,8.4-0.2,8.4,2.9
		c0,4.4-10.8,8.8-15.4,11.3c6.6,10.5,14.8,20.6,25.5,29.2l14.5-7.1C323.2,42.8,316.5,36.2,311.4,29"></path> <rect class="st0" height="33.5" width="17.4" x="272.7" y="15.5"></rect> </g> <g id="A"> <path class="st0" d="M239.3,20H250l-3.2-8.2h-6.7c-9.8,0-18.3,0.9-25.6,6c-6.5,4.6-9.4,11.2-9.4,17.6c0,6.4,3.1,12.9,8.1,18.2
		l11.1-5.1c-3-3.5-5.2-7.5-5.2-11.6h14.9v11.6h13.6V22.4h-13.6v6h-13.6C222.2,25.3,224.7,20,239.3,20"></path> </g> <g id="R1"> <path class="st0" d="M191.9,32.7c6-2.7,11.1-6.2,11.1-11.6c0-4.2-3.4-9.4-15.8-9.4h-25.1L159,20h22.1c2.4,0,6.6-0.2,6.6,2.3
		c0,3.4-8.5,6.9-12,8.8c5.2,8.2,11.6,16.1,20,22.8l11.4-5.6C201.2,43.5,196,38.3,191.9,32.7"></path> <polygon class="st0" points="161.6,48.3 175.2,48.3 175.2,22.4 161.6,22.4 161.6,48.3 	"></polygon> </g> <g id="B1"> <path class="st0" d="M143.8,28.3c3.7-2.2,6.9-4.7,6.9-8.2c0-4-3.1-8.5-15.2-8.5h-24.6l-3.2,8.2h21.3c4.5,0,6.4,0,6.4,1.7
		c0,1.9-4.6,4.1-6.6,5.1l-4.3,2.3c3.9,1.3,13.1,5.2,13.1,8.8c0,2.2-3.5,2.2-5.9,2.2h-7.8V22.3h-13.6v25.9h25.1
		c14.3,0,17.7-4.8,17.7-9C152.9,34.6,148.9,30.9,143.8,28.3"></path> </g> <g id="O"> <path class="st0" d="M87,25c-0.3-4.2-3.2-5.6-9.5-5.6c-6.3,0-9.1,1.4-9.5,5.6c0.3-4.2,3.2-5.6,9.5-5.6S86.7,20.8,87,25z"></path> <path class="st0" d="M101.2,24c0-0.2,0-0.5-0.1-0.7c-1-7-6.9-12.4-23.6-12.4S54.9,16.3,54,23.3c0,0.2-0.1,0.5-0.1,0.7
		c0,0.5-0.1,0.9-0.1,1.4c0,0.6,0,1.2,0.1,1.9c0.9,9.5,8.6,21.8,23.6,21.8s22.7-12.2,23.6-21.8c0.1-0.6,0.1-1.3,0.1-1.9
		C101.2,24.9,101.2,24.5,101.2,24z M87,27.1c0,0.2,0,0.4-0.1,0.6c-0.7,6.2-4.7,12.7-9.4,12.7s-8.7-6.5-9.4-12.7
		c-0.1-0.6-0.1-1.3-0.1-1.9c0-0.3,0-0.6,0-0.8c0.3-4.2,3.2-5.6,9.5-5.6c6.3,0,9.1,1.4,9.5,5.6c0,0.3,0,0.5,0,0.8
		C87,26.3,87,26.7,87,27.1z"></path> </g> <g id="C"> <path class="st0" d="M21.7,21.5c0-8.9,9.4-8.9,12.8-8.9h13.6L44,2.1H30.4C10.6,2.1,3.9,11,3.9,20.5c0,15.1,15.6,28.5,38,28.5h3
		L49,38.4C31.7,39.1,21.7,30.9,21.7,21.5"></path></g></svg>